# xmcd
#
# Track frame offsets: 
#        150
#        30642
#        57572
#        86812
#        114297
#        138012
#        164802
#        196147
#        231167
#        254840
#        280860
#        304940
#
# Disc length: 4617 seconds
#
# Revision: 11
# Processed by: cddbd v1.5.2PL0 Copyright (c) Steve Scherf et al.
# Submitted via: ExactAudioCopyFreeDBPlugin 1.0
#
DISCID=ad12070c
DTITLE=Joe Satriani, Eric Johnson en Steve Vai - G3 Live in concert
DYEAR=1997
DGENRE=Instrumental Rock
TTITLE0=Cool no.9
TTITLE1=Flying in a blue dream
TTITLE2=Summer song
TTITLE3=Zap
TTITLE4=Manhattan
TTITLE5=Camel's night out
TTITLE6=Answers
TTITLE7=For the love of god
TTITLE8=The attitude song
TTITLE9=Going down
TTITLE10=My guitar wants to kill your mama
TTITLE11=Red house
EXTD=Zweitausendeins YEAR: 1997
EXTT0=
EXTT1=
EXTT2=
EXTT3=
EXTT4=
EXTT5=
EXTT6=
EXTT7=
EXTT8=
EXTT9=
EXTT10=
EXTT11=
PLAYORDER=
